<svg width="97" height="50" viewBox="0 0 97 50" fill="none" xmlns="http://www.w3.org/2000/svg">
<path d="M70.2297 14.8427V21.2599C70.2297 22.6652 69.8294 23.7414 69.029 24.4886C68.2284 25.2446 67.1232 25.6226 65.7132 25.6226C64.9036 25.6226 64.1622 25.5114 63.4891 25.2891C62.8159 25.0756 62.2428 24.7687 61.7698 24.3685L62.6295 22.7675C63.4936 23.4524 64.5033 23.7948 65.6587 23.7948C66.4591 23.7948 67.0505 23.5991 67.4325 23.2078C67.8236 22.8075 68.0192 22.1938 68.0192 21.3667V20.793C67.3825 21.5579 66.4819 21.9404 65.3175 21.9404C64.1076 21.9404 63.1753 21.6068 62.5203 20.9397C61.8744 20.2638 61.5515 19.2943 61.5515 18.0313V14.8427H63.762V17.8979C63.762 18.6273 63.9394 19.1787 64.2942 19.5522C64.6489 19.9258 65.1492 20.1126 65.7951 20.1126C66.4774 20.1126 67.0186 19.9169 67.4189 19.5256C67.8191 19.1342 68.0192 18.5427 68.0192 17.7511V14.8427H70.2297ZM80.2201 23.3812C79.7652 23.6837 79.1921 23.9193 78.5008 24.0883C77.8185 24.2573 77.0907 24.3418 76.3176 24.3418C75.3533 24.3418 74.5346 24.2262 73.8615 23.9949C73.1883 23.7548 72.6789 23.4257 72.3332 23.0077C71.9875 22.5807 71.8147 22.096 71.8147 21.5535C71.8147 21.0554 71.9557 20.6151 72.2377 20.2327C72.5196 19.8502 72.9063 19.5656 73.3975 19.3788C73.0245 19.1831 72.7334 18.9163 72.5242 18.5783C72.3241 18.2404 72.2241 17.8623 72.2241 17.4443C72.2241 16.9373 72.3832 16.4748 72.7016 16.0568C73.02 15.6388 73.5021 15.3052 74.148 15.0562C74.7938 14.8071 75.5853 14.6826 76.5222 14.6826C77.1408 14.6826 77.7457 14.7449 78.337 14.8694C78.9283 14.9851 79.4423 15.1451 79.8789 15.3497L79.2649 17.004C78.4279 16.6215 77.541 16.4303 76.6041 16.4303C75.8946 16.4303 75.3578 16.5371 74.994 16.7505C74.6392 16.9551 74.4618 17.2352 74.4618 17.591C74.4618 17.9202 74.58 18.1737 74.8166 18.3515C75.0622 18.5205 75.4306 18.605 75.9219 18.605H78.5281V20.3127H75.7854C75.2305 20.3127 74.803 20.4061 74.5028 20.5929C74.2026 20.7796 74.0525 21.0509 74.0525 21.4067C74.0525 21.7803 74.2435 22.0738 74.6256 22.2872C75.0167 22.4918 75.6125 22.5941 76.4131 22.5941C76.9771 22.5941 77.541 22.523 78.1051 22.3806C78.669 22.2294 79.1466 22.0204 79.5378 21.7536L80.2201 23.3812ZM92.4187 14.6826C93.547 14.6826 94.4246 15.0072 95.0522 15.6565C95.6799 16.2969 95.9937 17.2264 95.9937 18.4449V24.1817H93.7832V18.5116C93.7832 17.8535 93.6059 17.3598 93.2511 17.0307C92.9057 16.6928 92.446 16.5237 91.8729 16.5237C91.2453 16.5237 90.7447 16.7016 90.372 17.0574C89.9993 17.4043 89.8125 17.9335 89.8125 18.645V24.1817H87.602V18.5116C87.602 17.8535 87.4383 17.3598 87.1108 17.0307C86.7833 16.6928 86.3373 16.5237 85.7736 16.5237C85.1549 16.5237 84.6591 16.7016 84.2861 17.0574C83.9132 17.4043 83.7267 17.9335 83.7267 18.645V24.1817H81.5162V14.8427H83.6584V15.9901C83.9496 15.5721 84.3362 15.2519 84.8183 15.0295C85.3003 14.7983 85.8555 14.6826 86.4831 14.6826C87.1381 14.6826 87.7112 14.8027 88.2024 15.0428C88.6936 15.2741 89.0714 15.6121 89.3349 16.0568C89.6624 15.6121 90.0897 15.2741 90.6176 15.0428C91.154 14.8027 91.7544 14.6826 92.4187 14.6826ZM61.4185 28.0174H64.6728C65.4506 28.0174 66.1362 28.1641 66.7298 28.4576C67.3302 28.7445 67.7941 29.1514 68.1216 29.6784C68.4559 30.2054 68.623 30.8191 68.623 31.5195C68.623 32.2199 68.4559 32.8336 68.1216 33.3606C67.7941 33.8876 67.3302 34.2978 66.7298 34.5914C66.1362 34.8782 65.4506 35.0216 64.6728 35.0216H61.4185V28.0174ZM64.5909 33.6908C65.3073 33.6908 65.877 33.4974 66.3 33.1105C66.7298 32.7169 66.9447 32.1866 66.9447 31.5195C66.9447 30.8524 66.7298 30.3254 66.3 29.9385C65.877 29.545 65.3073 29.3482 64.5909 29.3482H63.0763V33.6908H64.5909ZM69.7607 29.6384H71.3572V35.0216H69.7607V29.6384ZM70.5589 28.8879C70.2656 28.8879 70.0268 28.8045 69.8426 28.6378C69.6584 28.471 69.5663 28.2642 69.5663 28.0174C69.5663 27.7706 69.6584 27.5638 69.8426 27.397C70.0268 27.2302 70.2656 27.1468 70.5589 27.1468C70.8523 27.1468 71.0911 27.2269 71.2753 27.387C71.4595 27.5471 71.5516 27.7472 71.5516 27.9874C71.5516 28.2475 71.4595 28.4643 71.2753 28.6378C71.0911 28.8045 70.8523 28.8879 70.5589 28.8879ZM78.5186 29.6384V34.1211C78.5186 35.1083 78.2559 35.8421 77.7306 36.3224C77.2053 36.8027 76.4377 37.0428 75.428 37.0428C74.8958 37.0428 74.391 36.9795 73.9134 36.8527C73.4358 36.726 73.0401 36.5425 72.7263 36.3024L73.3608 35.1817C73.5927 35.3685 73.8861 35.5153 74.2409 35.622C74.5957 35.7354 74.9504 35.7921 75.3052 35.7921C75.8578 35.7921 76.2638 35.6687 76.523 35.4219C76.7891 35.1817 76.9221 34.8148 76.9221 34.3212V34.0911C76.506 34.538 75.926 34.7615 75.1824 34.7615C74.6775 34.7615 74.2136 34.6547 73.7906 34.4413C73.3744 34.2211 73.0435 33.9143 72.7979 33.5207C72.5523 33.1271 72.4295 32.6735 72.4295 32.1599C72.4295 31.6462 72.5523 31.1926 72.7979 30.7991C73.0435 30.4055 73.3744 30.102 73.7906 29.8885C74.2136 29.6684 74.6775 29.5583 75.1824 29.5583C75.9806 29.5583 76.5878 29.8151 77.004 30.3288V29.6384H78.5186ZM75.4996 33.4807C75.9226 33.4807 76.2672 33.3606 76.5332 33.1205C76.8061 32.8737 76.9426 32.5535 76.9426 32.1599C76.9426 31.7663 76.8061 31.4495 76.5332 31.2093C76.2672 30.9625 75.9226 30.8391 75.4996 30.8391C75.0766 30.8391 74.7287 30.9625 74.4558 31.2093C74.1829 31.4495 74.0464 31.7663 74.0464 32.1599C74.0464 32.5535 74.1829 32.8737 74.4558 33.1205C74.7287 33.3606 75.0766 33.4807 75.4996 33.4807ZM80.0045 29.6384H81.6009V35.0216H80.0045V29.6384ZM80.8027 28.8879C80.5093 28.8879 80.2705 28.8045 80.0863 28.6378C79.9021 28.471 79.81 28.2642 79.81 28.0174C79.81 27.7706 79.9021 27.5638 80.0863 27.397C80.2705 27.2302 80.5093 27.1468 80.8027 27.1468C81.0961 27.1468 81.3349 27.2269 81.5191 27.387C81.7033 27.5471 81.7954 27.7472 81.7954 27.9874C81.7954 28.2475 81.7033 28.4643 81.5191 28.6378C81.3349 28.8045 81.0961 28.8879 80.8027 28.8879ZM86.3987 34.7615C86.2418 34.8749 86.0473 34.9616 85.8154 35.0216C85.5902 35.075 85.3549 35.1017 85.1089 35.1017C84.4471 35.1017 83.9388 34.9382 83.5841 34.6114C83.2293 34.2845 83.0519 33.8042 83.0519 33.1705V28.4476H84.6484V29.7584H86.0098V30.9592H84.6484V33.1505C84.6484 33.3773 84.7064 33.5541 84.8224 33.6808C84.9383 33.8009 85.1055 33.8609 85.3242 33.8609C85.5698 33.8609 85.7881 33.7942 85.9791 33.6608L86.3987 34.7615ZM92.7181 29.6384V35.0216H91.1932V34.4012C90.7975 34.8682 90.2244 35.1017 89.474 35.1017C88.9554 35.1017 88.4847 34.9883 88.0617 34.7615C87.6455 34.5347 87.318 34.2111 87.0793 33.7909C86.8405 33.3706 86.7211 32.8837 86.7211 32.33C86.7211 31.7763 86.8405 31.2894 87.0793 30.8691C87.318 30.4488 87.6455 30.1253 88.0617 29.8985C88.4847 29.6717 88.9554 29.5583 89.474 29.5583C90.1767 29.5583 90.7259 29.7751 91.1216 30.2087V29.6384H92.7181ZM89.7503 33.8209C90.1528 33.8209 90.4871 33.6875 90.7532 33.4207C91.0193 33.1472 91.1523 32.7836 91.1523 32.33C91.1523 31.8764 91.0193 31.5162 90.7532 31.2493C90.4871 30.9758 90.1528 30.8391 89.7503 30.8391C89.3409 30.8391 89.0032 30.9758 88.7371 31.2493C88.471 31.5162 88.338 31.8764 88.338 32.33C88.338 32.7836 88.471 33.1472 88.7371 33.4207C89.0032 33.6875 89.3409 33.8209 89.7503 33.8209ZM96.1711 35.1017C95.5503 35.1017 95.0659 34.9416 94.7179 34.6214C94.37 34.2945 94.196 33.8342 94.196 33.2405V27.5971H95.7925V33.1505C95.7925 33.3773 95.8505 33.5541 95.9664 33.6808C96.0892 33.8009 96.2598 33.8609 96.4781 33.8609C96.56 33.8609 96.6419 33.8509 96.7237 33.8309C96.8124 33.8109 96.8807 33.7875 96.9284 33.7609L97.0001 34.9716C96.734 35.0583 96.4577 35.1017 96.1711 35.1017Z" fill="black"/>
<path d="M15.0717 13.8269C15.1065 13.8686 15.1375 13.9027 15.1724 13.9444C15.3817 14.1908 15.6065 14.4599 15.8508 14.748C15.971 14.892 16.0989 15.0398 16.2268 15.1914C16.8742 15.9532 17.6068 16.8174 18.3782 17.7195C18.6844 18.0795 18.9984 18.4472 19.3125 18.8148C19.6265 19.1825 19.9443 19.5539 20.2583 19.9216C20.2777 19.9443 20.297 19.9671 20.3165 19.9898C20.4598 20.1565 20.5994 20.3233 20.7428 20.4863C20.7661 20.5128 20.7894 20.5432 20.8165 20.5697C20.9289 20.6985 21.0374 20.8274 21.146 20.9563C21.2158 21.0397 21.2855 21.1193 21.3553 21.2027C21.3747 21.2254 21.3941 21.2481 21.4134 21.2709C21.4561 21.3239 21.5027 21.3732 21.5453 21.4263C21.5995 21.4907 21.6538 21.5551 21.7081 21.6196C21.7313 21.6499 21.7585 21.6765 21.7817 21.7067C21.8476 21.7825 21.9135 21.8622 21.9795 21.938C22.0259 21.991 22.0686 22.0441 22.1151 22.0971C22.1694 22.1616 22.2236 22.226 22.2779 22.2904C22.3244 22.3473 22.3748 22.4004 22.4213 22.4572C22.4446 22.4838 22.4679 22.5141 22.495 22.5406C22.5687 22.6278 22.6423 22.7149 22.716 22.7983C22.7392 22.8248 22.7624 22.8514 22.7857 22.8779C22.8284 22.931 22.8748 22.9803 22.9175 23.0295C22.964 23.0826 23.0067 23.1357 23.0532 23.1887C23.0764 23.2152 23.0958 23.238 23.1191 23.2645C23.3904 23.5791 23.6425 23.8785 23.8828 24.1552C23.8944 24.1666 23.906 24.1817 23.9177 24.1932C23.9913 24.2765 24.0572 24.3561 24.1269 24.4357C24.1657 24.4812 24.2045 24.5267 24.2393 24.5684C24.2549 24.5873 24.2743 24.6101 24.2897 24.629C24.4061 24.7617 24.5107 24.8867 24.6154 25.008C24.7434 25.1558 24.8635 25.2961 24.9682 25.4173C24.9992 25.4553 25.0263 25.4856 25.0534 25.5197L25.0573 25.5235C25.1698 25.6561 25.2705 25.7736 25.3519 25.8683C25.3519 25.8683 25.3519 25.8683 25.3558 25.8722C25.3946 25.9176 25.4334 25.9593 25.4643 25.9972C25.4721 26.0048 25.4798 26.0086 25.4876 26.0162C25.5302 26.0465 25.6 26.0503 25.6426 26.0162C25.6504 26.0086 25.6582 26.0048 25.6659 25.9972C25.693 25.9669 25.7241 25.929 25.759 25.8911C25.7822 25.8607 25.8094 25.8305 25.8365 25.8001C25.8985 25.7282 25.9683 25.6485 26.0419 25.5614C26.0691 25.531 26.0923 25.5045 26.1156 25.4742C26.1233 25.4666 26.1272 25.459 26.135 25.4514C26.1737 25.406 26.2163 25.3567 26.259 25.3074C26.259 25.3037 26.2629 25.3037 26.2629 25.3037C26.2978 25.262 26.3365 25.2164 26.3753 25.171C26.4024 25.1369 26.4335 25.1028 26.4644 25.0648C26.573 24.936 26.6893 24.8034 26.8133 24.6555C26.8288 24.6366 26.8443 24.6176 26.8637 24.5986C26.9141 24.538 26.9723 24.4736 27.0265 24.4091C27.0769 24.3523 27.1273 24.2916 27.1777 24.231C27.3522 24.0264 27.5382 23.8103 27.732 23.5829C27.7708 23.5412 27.8057 23.4957 27.8444 23.454C27.8561 23.4389 27.8716 23.4237 27.8832 23.4085C27.9375 23.3441 27.9956 23.2797 28.0499 23.2115C28.108 23.1433 28.1662 23.075 28.2282 23.003C28.2631 22.9613 28.298 22.9234 28.3329 22.8817C28.3484 22.8628 28.3639 22.8476 28.3794 22.8287C28.4608 22.7301 28.5461 22.6315 28.6313 22.533C28.6546 22.5065 28.674 22.4838 28.6973 22.4572C28.7244 22.4269 28.7516 22.3966 28.7748 22.3662C28.9841 22.1236 29.1974 21.8735 29.4144 21.6158C29.4648 21.5551 29.5191 21.4945 29.5694 21.4339C29.5772 21.4263 29.585 21.4149 29.5927 21.4073C29.6586 21.3277 29.7284 21.2481 29.7982 21.1686C29.8563 21.1041 29.9106 21.0359 29.9687 20.9714C30.0773 20.8464 30.1858 20.7175 30.2944 20.5886C30.3254 20.5508 30.3564 20.5128 30.3913 20.475C30.5308 20.312 30.6704 20.1489 30.8099 19.986C30.8293 19.9671 30.8448 19.9443 30.8642 19.9254C31.1782 19.5578 31.4922 19.1863 31.81 18.8186C32.124 18.451 32.438 18.0834 32.7443 17.7233C33.5118 16.8212 34.2483 15.9571 34.8957 15.1952C35.0236 15.0436 35.1515 14.8958 35.2717 14.7518C35.5159 14.4637 35.7407 14.1946 35.9501 13.9483C35.985 13.9066 36.0121 13.8725 36.047 13.8345C33.2792 11.371 29.6005 9.86621 25.5651 9.86621C21.5181 9.86621 17.8394 11.3671 15.0717 13.8269Z" fill="black"/>
<path d="M30.0302 32.3567C29.8093 32.1596 29.4605 32.2165 29.3093 32.4704L26.9447 36.488L26.3593 37.4772C26.2507 37.6591 26.053 37.7728 25.836 37.7728H25.5569H25.2855H25.2778C25.0607 37.7728 24.8591 37.6591 24.7505 37.4734L24.7467 37.4696L21.8006 32.4628C21.6533 32.2089 21.3006 32.1557 21.0796 32.3491L18.8816 34.2669L15.827 36.9352C18.4901 39.0236 21.8704 40.2743 25.553 40.2743C29.2356 40.2743 32.6159 39.0236 35.2828 36.9314L34.1083 35.9043L30.0302 32.3567Z" fill="black"/>
<path d="M13.401 23.6582C12.6877 22.4869 11.8504 21.1112 11.1449 19.9476C11.0945 19.8642 11.0441 19.7808 10.9937 19.7012C10.3463 21.3727 9.98975 23.1844 9.98975 25.0757C9.98975 27.1451 10.4122 29.1122 11.1798 30.9088L11.7729 30.2L14.9593 26.3909C14.9632 26.3871 14.9903 26.3568 15.0252 26.3113C15.0214 26.3075 15.0174 26.3037 15.0136 26.2961C14.9166 26.1483 14.2421 25.0416 13.401 23.6582Z" fill="black"/>
<path d="M25.5845 0C11.4548 0 0 11.1924 0 25C0 38.8076 11.4548 50 25.5845 50C39.7141 50 51.1689 38.8076 51.1689 25C51.1689 11.1924 39.7141 0 25.5845 0ZM45.5868 38.1822H45.5752H36.7486C36.737 38.1822 36.7215 38.1785 36.7099 38.1747C36.7059 38.1785 36.7059 38.1785 36.7021 38.1822L36.6982 38.1785C33.6746 40.6345 29.7904 42.1126 25.5534 42.1126C21.3165 42.1126 17.4323 40.6345 14.4126 38.1785H14.4087C14.4048 38.1747 14.4048 38.1747 14.401 38.1709C14.3893 38.1747 14.3777 38.1785 14.3622 38.1785H5.53555H5.52392C5.34948 38.1785 5.25645 37.9814 5.36498 37.8525L9.85002 32.4894C8.73752 30.2456 8.11338 27.7289 8.11338 25.0682C8.11338 15.6572 15.9205 8.02759 25.5534 8.02759C35.1864 8.02759 42.9935 15.6572 42.9935 25.0682C42.9935 27.7252 42.3694 30.2418 41.2607 32.4856L42.9625 34.5172L45.7458 37.845L45.7535 37.8525C45.8544 37.9851 45.7613 38.1822 45.5868 38.1822Z" fill="black"/>
<path d="M39.9694 19.9439C39.26 21.1075 38.4266 22.4833 37.7134 23.6545C36.8683 25.0416 36.1977 26.1447 36.1046 26.2962C36.1008 26.3 36.0969 26.3038 36.093 26.3076L36.1511 26.3796C36.155 26.3834 36.155 26.3872 36.1589 26.391L39.9307 30.9013C40.6943 29.1048 41.1169 27.1377 41.1169 25.072C41.1169 23.1807 40.7602 21.3728 40.1167 19.7051C40.0664 19.7847 40.0198 19.8643 39.9694 19.9439Z" fill="black"/>
</svg>
